<svg xmlns="http://www.w3.org/2000/svg" width="226" height="134" viewBox="0 0 226 134"><g fill="#45BBE5"><path d="M12.29 110.11H6.41c-.21 0-.29-.09-.29-.29V91.88c0-.21.09-.29.29-.29h5.88c3.23 0 5.29 2.06 5.29 5.29v7.94c0 3.26-2.06 5.29-5.29 5.29zm2.65-13.53c0-1.44-1.21-2.65-2.65-2.65H9.05c-.21 0-.29.09-.29.29v13.23c0 .21.09.29.29.29h3.23c1.44 0 2.65-1.2 2.65-2.64v-8.52zM30.37 103.93h-7.35c-.21 0-.3.09-.3.29v1.18c0 1.44 1.21 2.64 2.65 2.64 1 0 1.91-.59 2.47-1.71.06-.12.15-.18.23-.18s.18.06.35.15l1.68.85c.12.06.18.15.18.23 0 .15-.35.76-.85 1.35-.82.94-2.06 1.65-4.06 1.65-3.23 0-5.29-2.06-5.29-5v-3.82c0-2.35 2.06-5 5.29-5s5.29 2.65 5.29 5v2.06c.01.22-.08.31-.29.31zm-5-5c-1.44 0-2.65 1.21-2.65 2.65 0 .21.09.29.3.29h4.7c.21 0 .29-.09.29-.29.01-1.44-1.2-2.65-2.64-2.65zM35.66 110.11H33.6c-.21 0-.29-.09-.29-.29V91.88c0-.21.09-.29.29-.29h2.06c.21 0 .29.09.29.29v17.94c.01.2-.08.29-.29.29zM40.37 94.52c-.91 0-1.62-.71-1.62-1.62s.71-1.62 1.62-1.62c.91 0 1.62.71 1.62 1.62s-.71 1.62-1.62 1.62zm1.03 15.59h-2.06c-.21 0-.29-.09-.29-.29V97.17c0-.21.09-.29.29-.29h2.06c.21 0 .29.09.29.29v12.64c0 .21-.09.3-.29.3zM55.22 97.73l-4.94 12.2c-.06.12-.15.18-.26.18h-1.65c-.12 0-.21-.06-.26-.18l-4.94-12.2c-.12-.29-.21-.5-.21-.62 0-.15.09-.24.29-.24h2.21c.12 0 .21.06.26.18l3.09 7.91c.06.12.29.88.32 1.15h.12c.03-.27.26-1 .32-1.15l3.09-7.91c.06-.12.15-.18.26-.18h2.21c.21 0 .29.09.29.24s-.12.38-.2.62zM66.54 103.93h-7.35c-.21 0-.29.09-.29.29v1.18c0 1.44 1.21 2.64 2.65 2.64 1 0 1.91-.59 2.47-1.71.06-.12.15-.18.24-.18s.18.06.35.15l1.68.85c.12.06.18.15.18.23 0 .15-.35.76-.85 1.35-.82.94-2.06 1.65-4.06 1.65-3.23 0-5.29-2.06-5.29-5v-3.82c0-2.35 2.06-5 5.29-5s5.29 2.65 5.29 5v2.06c-.02.22-.11.31-.31.31zm-5-5c-1.44 0-2.65 1.21-2.65 2.65 0 .21.09.29.29.29h4.71c.21 0 .29-.09.29-.29 0-1.44-1.2-2.65-2.64-2.65zM75.56 99.82c-.12 0-.41-.15-.82-.15-1.5 0-2.62.79-2.62 2.5v7.64c0 .21-.09.29-.29.29h-2.06c-.21 0-.29-.09-.29-.29V97.17c0-.21.09-.29.29-.29h1.76c.21 0 .29.09.29.29v.94c0 .21.12.36.26.36.09 0 .15-.03.21-.12.41-.53 1.5-1.47 2.47-1.47.32 0 .59.03.79.06.18.03.23.12.23.29v2.32c.02.18-.07.27-.22.27zM78.83 94.52c-.91 0-1.62-.71-1.62-1.62s.71-1.62 1.62-1.62c.91 0 1.62.71 1.62 1.62s-.71 1.62-1.62 1.62zm1.03 15.59H77.8c-.21 0-.29-.09-.29-.29V97.17c0-.21.09-.29.29-.29h2.06c.21 0 .29.09.29.29v12.64c0 .21-.09.3-.29.3zM93.53 110.11h-2.06c-.21 0-.29-.09-.29-.29v-7.94c0-1.44-1.21-2.65-2.65-2.65s-2.65 1.21-2.65 2.65v7.94c0 .21-.09.29-.29.29h-2.06c-.21 0-.29-.09-.29-.29V97.17c0-.21.09-.29.29-.29h1.77c.2 0 .29.09.29.29v.35c0 .21.09.35.24.35.09 0 .15-.06.23-.12.68-.56 1.74-.88 2.47-.88 3.23 0 5.29 2.06 5.29 5v7.94c0 .21-.09.3-.29.3zM104.41 116.72h-3.97c-2.21 0-3.97-1.47-3.97-3.68v-.29c0-1.18.7-2.18 1.62-2.82.09-.09.15-.15.15-.23 0-.27-.41-.59-.41-1.62 0-1.15.56-1.67.56-1.88 0-.09-.03-.18-.12-.24-1.09-.88-1.79-2.23-1.79-3.82v-.26c0-2.94 2.35-5 5.29-5 .73 0 1.76.32 2.44.88.09.06.15.12.23.12.15 0 .27-.15.27-.35v-.35c0-.21.09-.29.29-.29h1.76c.21 0 .29.09.29.29v4.97c0 2.94-2.35 5-5.29 5-.27 0-.62-.03-.85-.06-.41.21-.77.59-.77 1 0 .47.38.91.79 1h3.47c2.21 0 3.97 1.47 3.97 3.67v.29c.01 2.2-1.76 3.67-3.96 3.67zm0-14.84c0-1.44-1.2-2.65-2.65-2.65-1.44 0-2.65 1.21-2.65 2.65v.26c0 1.44 1.21 2.65 2.65 2.65s2.65-1.21 2.65-2.65v-.26zm1.32 10.87c0-.71-.62-1.32-1.32-1.32h-3.97c-.71 0-1.32.62-1.32 1.32v.29c0 .71.62 1.32 1.32 1.32h3.97c.71 0 1.32-.62 1.32-1.32v-.29zM124.72 110.11h-10c-.2 0-.29-.09-.29-.29V91.88c0-.21.09-.29.29-.29h10c.21 0 .29.09.29.29v1.77c0 .21-.09.29-.29.29h-7.35c-.21 0-.29.09-.29.29v5c0 .21.09.29.29.29h6.03c.21 0 .29.09.29.29v1.76c0 .21-.09.29-.29.29h-6.03c-.21 0-.29.09-.29.29v5.29c0 .21.09.29.29.29h7.35c.21 0 .29.09.29.29v1.77c.01.23-.08.32-.29.32zM137.1 110.11h-2.41c-.09 0-.21-.06-.27-.15l-2.59-4.18c-.09-.12-.18-.21-.26-.21s-.18.09-.26.21l-2.59 4.18c-.06.09-.18.15-.27.15h-2.35c-.21 0-.29-.09-.29-.23 0-.12.09-.27.15-.35l3.71-5.71c.06-.09.15-.23.15-.35s-.06-.23-.15-.35l-3.64-5.56c-.09-.14-.21-.32-.21-.44 0-.15.09-.24.29-.24h2.38c.09 0 .18.06.24.15l2.62 4.21c.06.12.12.18.21.18s.18-.06.23-.18l2.65-4.21c.06-.09.15-.15.23-.15h2.44c.21 0 .29.09.29.24 0 .12-.12.32-.27.53l-3.56 5.41c-.12.18-.18.29-.18.41 0 .15.09.29.15.38l3.67 5.65c.09.15.18.27.18.38.01.14-.08.23-.29.23zM147.69 108.76c-.82.94-2.06 1.65-4.06 1.65-3.23 0-5.29-2.06-5.29-5v-3.82c0-2.94 2.06-5 5.29-5 2.09 0 3.35.76 4.18 1.76.5.62.71 1.03.71 1.18 0 .12-.06.21-.18.27l-1.53.76c-.23.12-.38.21-.5.21-.09 0-.18-.06-.24-.18-.53-1.06-1.47-1.65-2.44-1.65-1.44 0-2.65 1.21-2.65 2.65v3.82c0 1.44 1.21 2.64 2.65 2.64 1 0 1.91-.59 2.47-1.71.06-.12.15-.18.24-.18s.18.06.35.15l1.68.85c.12.06.18.15.18.23-.01.16-.36.78-.86 1.37zM160.48 103.93h-7.35c-.21 0-.29.09-.29.29v1.18c0 1.44 1.21 2.64 2.65 2.64 1 0 1.91-.59 2.47-1.71.06-.12.15-.18.24-.18s.18.06.35.15l1.68.85c.12.06.18.15.18.23 0 .15-.35.76-.85 1.35-.82.94-2.06 1.65-4.06 1.65-3.23 0-5.29-2.06-5.29-5v-3.82c0-2.35 2.06-5 5.29-5s5.29 2.65 5.29 5v2.06c-.02.22-.11.31-.31.31zm-5-5c-1.44 0-2.65 1.21-2.65 2.65 0 .21.09.29.29.29h4.7c.21 0 .29-.09.29-.29.01-1.44-1.19-2.65-2.63-2.65zM165.77 110.11h-2.06c-.21 0-.29-.09-.29-.29V91.88c0-.21.09-.29.29-.29h2.06c.21 0 .29.09.29.29v17.94c0 .2-.09.29-.29.29zM171.5 110.11h-2.06c-.21 0-.29-.09-.29-.29V91.88c0-.21.09-.29.29-.29h2.06c.21 0 .29.09.29.29v17.94c.01.2-.08.29-.29.29zM184.73 103.93h-7.35c-.21 0-.29.09-.29.29v1.18c0 1.44 1.21 2.64 2.64 2.64 1 0 1.91-.59 2.47-1.71.06-.12.15-.18.23-.18.09 0 .18.06.35.15l1.68.85c.12.06.18.15.18.23 0 .15-.35.76-.85 1.35-.82.94-2.06 1.65-4.06 1.65-3.23 0-5.29-2.06-5.29-5v-3.82c0-2.35 2.06-5 5.29-5 3.24 0 5.29 2.65 5.29 5v2.06c.01.22-.08.31-.29.31zm-5-5c-1.44 0-2.64 1.21-2.64 2.65 0 .21.09.29.29.29h4.71c.21 0 .29-.09.29-.29 0-1.44-1.2-2.65-2.65-2.65zM197.97 110.11h-2.06c-.21 0-.29-.09-.29-.29v-7.94c0-1.44-1.21-2.65-2.65-2.65s-2.65 1.21-2.65 2.65v7.94c0 .21-.09.29-.29.29h-2.06c-.21 0-.29-.09-.29-.29V97.17c0-.21.09-.29.29-.29h1.76c.21 0 .29.09.29.29v.35c0 .21.09.35.24.35.09 0 .15-.06.23-.12.68-.56 1.74-.88 2.47-.88 3.23 0 5.29 2.06 5.29 5v7.94c.01.21-.08.3-.28.3zM210.26 108.76c-.82.94-2.06 1.65-4.06 1.65-3.23 0-5.29-2.06-5.29-5v-3.82c0-2.94 2.06-5 5.29-5 2.09 0 3.35.76 4.18 1.76.5.62.71 1.03.71 1.18 0 .12-.06.21-.18.27l-1.53.76c-.23.12-.38.21-.5.21-.09 0-.18-.06-.23-.18-.53-1.06-1.47-1.65-2.44-1.65-1.44 0-2.65 1.21-2.65 2.65v3.82c0 1.44 1.21 2.64 2.65 2.64 1 0 1.91-.59 2.47-1.71.06-.12.15-.18.23-.18s.18.06.35.15l1.68.85c.12.06.18.15.18.23-.01.16-.36.78-.86 1.37zM223.04 103.93h-7.35c-.21 0-.29.09-.29.29v1.18c0 1.44 1.21 2.64 2.65 2.64 1 0 1.91-.59 2.47-1.71.06-.12.15-.18.23-.18s.18.06.35.15l1.68.85c.12.06.18.15.18.23 0 .15-.35.76-.85 1.35-.82.94-2.06 1.65-4.06 1.65-3.23 0-5.29-2.06-5.29-5v-3.82c0-2.35 2.06-5 5.29-5s5.29 2.65 5.29 5v2.06c0 .22-.09.31-.3.31zm-4.99-5c-1.44 0-2.65 1.21-2.65 2.65 0 .21.09.29.29.29h4.71c.2 0 .29-.09.29-.29 0-1.44-1.2-2.65-2.64-2.65zM7.14 117.39c-.91 0-1.62-.71-1.62-1.62s.71-1.62 1.62-1.62 1.62.71 1.62 1.62-.71 1.62-1.62 1.62zm1.03 15.59H6.11c-.21 0-.29-.09-.29-.29v-12.64c0-.21.09-.29.29-.29h2.06c.21 0 .29.09.29.29v12.64c.01.2-.08.29-.29.29zM21.85 132.98h-2.06c-.21 0-.29-.09-.29-.29v-7.94c0-1.44-1.21-2.65-2.65-2.65s-2.65 1.21-2.65 2.65v7.94c0 .21-.09.29-.29.29h-2.06c-.21 0-.29-.09-.29-.29v-12.64c0-.21.09-.29.29-.29h1.76c.21 0 .29.09.29.29v.35c0 .21.09.35.23.35.09 0 .15-.06.23-.12.68-.56 1.74-.88 2.47-.88 3.23 0 5.29 2.06 5.29 5v7.94c.02.2-.07.29-.27.29zM32.31 132.98h-2.06c-.21 0-.29-.09-.29-.29v-17.94c0-.21.09-.29.29-.29h2.06c.21 0 .29.09.29.29v17.94c.01.2-.08.29-.29.29zM46.28 132.98h-2.06c-.21 0-.29-.09-.29-.29v-7.94c0-1.44-1.21-2.65-2.65-2.65s-2.65 1.21-2.65 2.65v7.94c0 .21-.09.29-.29.29h-2.06c-.21 0-.29-.09-.29-.29v-12.64c0-.21.09-.29.29-.29h1.76c.21 0 .29.09.29.29v.35c0 .21.09.35.24.35.09 0 .15-.06.24-.12.68-.56 1.74-.88 2.47-.88 3.23 0 5.29 2.06 5.29 5v7.94c0 .2-.09.29-.29.29zM56.89 114.92l-.5 1.44c-.06.15-.12.21-.24.21-.15 0-.5-.06-.76-.06-1.44 0-2.65 1.21-2.65 2.65v1.62c0 .21.09.29.29.29h2.06c.21 0 .29.09.29.29v1.77c0 .21-.09.29-.29.29h-2.06c-.21 0-.29.09-.29.29v8.97c0 .21-.09.29-.29.29h-2.06c-.21 0-.29-.09-.29-.29v-8.97c0-.21-.09-.29-.29-.29h-.74c-.21 0-.29-.09-.29-.29v-1.77c0-.21.09-.29.29-.29h.74c.21 0 .29-.09.29-.29v-1.32c0-2.94 2.35-5.29 5.29-5.29.47 0 .88.03 1.38.12.15.03.23.12.23.24s-.05.25-.11.39zM63.39 122.69c-.12 0-.41-.15-.82-.15-1.5 0-2.62.79-2.62 2.5v7.65c0 .21-.09.29-.29.29H57.6c-.21 0-.29-.09-.29-.29v-12.64c0-.21.09-.29.29-.29h1.76c.21 0 .3.09.3.29v.94c0 .21.12.35.26.35.09 0 .15-.03.21-.12.41-.53 1.5-1.47 2.47-1.47.32 0 .59.03.79.06.18.03.24.12.24.29v2.32c-.01.18-.09.27-.24.27zM75.18 132.98h-1.76c-.21 0-.29-.09-.29-.29v-.38c0-.21-.12-.35-.27-.35-.09 0-.15.06-.23.12-.82.68-1.74.91-2.32.91h-1.15c-2.18 0-3.91-1.47-3.91-3.68v-.18c0-2.23 1.73-3.65 3.91-3.65h3.38c.21 0 .29-.09.29-.29v-.82c0-1.47-1.18-2.59-2.68-2.59-.88 0-1.79.5-2.44 1.65-.06.12-.15.18-.23.18-.09 0-.32-.15-.5-.24l-1.47-.76c-.12-.06-.18-.15-.18-.23 0-.12.29-.62.59-1 .85-1.14 2.09-1.91 4.23-1.91 3.23 0 5.32 1.97 5.32 4.91v8.32c.01.19-.08.28-.29.28zm-2.35-5.15c0-.21-.09-.29-.29-.29h-3.38c-.74 0-1.29.56-1.29 1.29v.47c0 .74.56 1.32 1.29 1.32h1.15c1.18 0 2.32-1.06 2.53-2.15v-.64zM83.5 133.27h-.88c-2.18 0-3.41-.79-4.17-1.79-.3-.38-.62-1-.62-1.15 0-.09.06-.18.18-.24l1.53-.76c.12-.06.23-.15.35-.15.09 0 .15.06.21.18.47.94 1.5 1.65 2.53 1.65h.88c1.5 0 2.23-.85 2.23-1.77 0-1.29-1.82-1.47-3.73-1.85-2-.38-4.12-1-4.12-3.62 0-2.76 2.17-4.32 4.73-4.32h.88c2.29 0 3.56.91 4.29 1.97.26.38.5.79.5.97 0 .09-.06.18-.18.24l-1.41.71c-.18.09-.32.21-.47.21-.09 0-.15-.06-.21-.18-.47-.94-1.5-1.65-2.53-1.65h-.88c-1.53 0-2.15.62-2.15 1.59 0 1.35 1.82 1.56 3.7 1.94 2.03.41 4.18 1.03 4.18 3.59.01 2.37-1.63 4.43-4.84 4.43zM96.35 133.24c-.47 0-1.32-.15-2.03-.44-1.88-.76-2.97-2.41-2.97-4.53v-5.88c0-.21-.09-.29-.29-.29h-1.62c-.21 0-.29-.09-.29-.27 0-.15.03-.59.06-1.06l3.23-3.44c.15-.15.26-.24.41-.24h.85c.21 0 .29.09.29.29v2.06c0 .21.09.29.29.29h2.06c.21 0 .29.09.29.29v1.77c0 .21-.09.29-.29.29h-2.06c-.21 0-.29.09-.29.29v5.88c0 1.27.94 2.38 2.41 2.62.15.03.24.12.24.29v1.76c0 .23-.11.32-.29.32zM105.38 122.69c-.12 0-.41-.15-.82-.15-1.5 0-2.62.79-2.62 2.5v7.65c0 .21-.09.29-.29.29h-2.06c-.21 0-.29-.09-.29-.29v-12.64c0-.21.09-.29.29-.29h1.76c.21 0 .29.09.29.29v.94c0 .21.12.35.26.35.09 0 .15-.03.21-.12.41-.53 1.5-1.47 2.47-1.47.32 0 .59.03.79.06.18.03.23.12.23.29v2.32c.01.18-.08.27-.22.27zM117.31 132.98h-1.76c-.21 0-.29-.09-.29-.29v-.35c0-.21-.12-.35-.27-.35-.09 0-.15.06-.24.12-.67.56-1.7.88-2.44.88-3.23 0-5.29-2.06-5.29-5v-7.94c0-.21.09-.29.29-.29h2.06c.21 0 .29.09.29.29v7.94c0 1.44 1.21 2.65 2.65 2.65s2.65-1.21 2.65-2.65v-7.94c0-.21.09-.29.29-.29h2.06c.21 0 .29.09.29.29v12.64c.01.2-.08.29-.29.29zM129.6 131.62c-.82.94-2.06 1.65-4.06 1.65-3.23 0-5.29-2.06-5.29-5v-3.82c0-2.94 2.06-5 5.29-5 2.09 0 3.35.77 4.18 1.76.5.62.71 1.03.71 1.18 0 .12-.06.21-.18.26l-1.53.77c-.24.12-.38.21-.5.21-.09 0-.18-.06-.24-.17-.53-1.06-1.47-1.65-2.44-1.65-1.44 0-2.65 1.2-2.65 2.65v3.82c0 1.44 1.21 2.65 2.65 2.65 1 0 1.91-.59 2.47-1.7.06-.12.15-.18.23-.18.09 0 .18.06.36.15l1.67.85c.12.06.18.15.18.23.01.14-.35.76-.85 1.34zM138.13 133.24c-.47 0-1.32-.15-2.03-.44-1.88-.76-2.97-2.41-2.97-4.53v-5.88c0-.21-.09-.29-.29-.29h-1.62c-.21 0-.29-.09-.29-.27 0-.15.03-.59.06-1.06l3.23-3.44c.15-.15.27-.24.41-.24h.85c.21 0 .29.09.29.29v2.06c0 .21.09.29.29.29h2.06c.21 0 .29.09.29.29v1.77c0 .21-.09.29-.29.29h-2.06c-.21 0-.29.09-.29.29v5.88c0 1.27.94 2.38 2.41 2.62.15.03.23.12.23.29v1.76c.01.23-.1.32-.28.32zM151.07 132.98h-1.77c-.21 0-.29-.09-.29-.29v-.35c0-.21-.12-.35-.26-.35-.09 0-.15.06-.24.12-.68.56-1.71.88-2.44.88-3.23 0-5.29-2.06-5.29-5v-7.94c0-.21.09-.29.29-.29h2.06c.21 0 .29.09.29.29v7.94c0 1.44 1.21 2.65 2.65 2.65s2.65-1.21 2.65-2.65v-7.94c0-.21.09-.29.29-.29h2.06c.21 0 .29.09.29.29v12.64c0 .2-.09.29-.29.29zM160.54 122.69c-.12 0-.41-.15-.82-.15-1.5 0-2.62.79-2.62 2.5v7.65c0 .21-.09.29-.29.29h-2.06c-.21 0-.29-.09-.29-.29v-12.64c0-.21.09-.29.29-.29h1.76c.21 0 .29.09.29.29v.94c0 .21.12.35.26.35.09 0 .15-.03.21-.12.41-.53 1.5-1.47 2.47-1.47.32 0 .59.03.79.06.18.03.24.12.24.29v2.32c0 .18-.09.27-.23.27zM172.33 126.8h-7.35c-.21 0-.29.09-.29.29v1.18c0 1.44 1.21 2.65 2.65 2.65 1 0 1.91-.59 2.47-1.7.06-.12.15-.18.24-.18s.18.06.35.15l1.68.85c.12.06.18.15.18.23 0 .15-.35.76-.85 1.35-.82.94-2.06 1.65-4.06 1.65-3.24 0-5.29-2.06-5.29-5v-3.82c0-2.35 2.06-5 5.29-5s5.29 2.65 5.29 5v2.06c-.02.2-.11.29-.31.29zm-5-5c-1.44 0-2.65 1.2-2.65 2.65 0 .21.09.29.29.29h4.71c.21 0 .29-.09.29-.29 0-1.44-1.2-2.65-2.64-2.65z"/></g><path fill="#003963" d="M27.95 57.74h-5.17c-.26 0-.34-.07-.34-.38v-4.83c0-3.52.26-6.89.26-6.89h-.11s-.34 1.69-.94 3.37l-1.98 5.54c-.11.3-.41.37-.64.37H15.4c-.23 0-.56-.07-.67-.37l-1.99-5.66c-.6-1.69-.94-3.26-.94-3.26h-.1s.34 3.26.34 6.82v4.91c0 .3-.11.38-.37.38H6.38c-.23 0-.34-.07-.34-.38V34.49c0-.3.11-.38.34-.38h5.58c.15 0 .3.08.38.23l4.46 11.5c.34.82.41 1.5.41 1.5h.15s.19-.67.49-1.5l4.31-11.5c.07-.15.22-.23.37-.23h5.43c.22 0 .37.08.37.38v22.88c-.01.3-.16.37-.38.37z"/><path fill="#45BBE5" d="M49.7 57.74l-2.75-3.32c-2.14 2.64-4.71 3.75-7.92 3.75-4.57 0-7.63-2.78-7.63-7.17 0-3.75 2.14-6.38 6.21-7.49-1-1.21-1.85-2.89-1.85-4.49 0-3.5 2.64-5.31 5.99-5.31 2.25 0 4.64.78 5.46 1.25v4.81l-2.39-.11-.43-2.42c-.07-.36-.18-.54-.54-.64-.53-.21-1.21-.29-2-.29-2.03 0-3 .96-3 2.43 0 1.64.71 2.64 2.96 5.31l4.81 5.71c.79-2.28 1.07-3.89 1.21-5.81h4.67v1.89l-1.6.28c-.43.07-.57.18-.64.64-.29 1.75-.82 3.71-1.54 5.21l2.53 3c.28.32.46.43.93.54l1.96.32v1.93H49.7zM39.29 45.58c-2.78.54-4.71 2.21-4.71 5.35 0 2.25 1.39 4.57 4.82 4.57 2.17 0 4.21-1.03 5.67-3.14l-5.78-6.78z"/><path fill="#003963" d="M79.19 57.74h-5.17c-.26 0-.34-.07-.34-.38v-4.83c0-3.52.26-6.89.26-6.89h-.11s-.34 1.69-.94 3.37l-1.99 5.54c-.11.3-.41.37-.64.37h-3.63c-.22 0-.56-.07-.68-.37l-1.98-5.66c-.6-1.69-.94-3.26-.94-3.26h-.11s.34 3.26.34 6.82v4.91c0 .3-.11.38-.38.38H57.6c-.23 0-.34-.07-.34-.38V34.49c0-.3.11-.38.34-.38h5.58c.15 0 .3.08.38.23l4.46 11.5c.34.82.41 1.5.41 1.5h.15s.19-.67.49-1.5l4.31-11.5c.07-.15.22-.23.37-.23h5.43c.22 0 .37.08.37.38v22.88c.02.3-.13.37-.36.37z"/><g fill="#003963"><path d="M22.22 84.41c-1.35 1.05-2.96 1.5-5.06 1.5h-2.58c-5.06 0-8.13-2.81-8.13-7.04V68.34c0-4.23 3.07-7.04 8.13-7.04h2.58c2.44 0 4.2.6 5.66 1.98.79.79 1.5 1.76 2.17 3.03.11.23.23.56-.07.71l-4.64 2.13c-.3.15-.56-.04-.71-.3-.75-1.35-1.61-2.1-2.73-2.1h-2.25c-1.27 0-1.99.64-1.99 1.57v10.53c0 .94.71 1.57 1.99 1.57h2.25c1.12 0 1.98-.75 2.73-2.1.15-.26.41-.45.71-.3l4.64 2.13c.3.15.19.49.07.71-.82 1.6-1.72 2.76-2.77 3.55zM36.94 85.91h-2.62c-4.87 0-8.13-2.81-8.13-7.04V68.34c0-4.23 3.33-7.04 8.13-7.04h2.62c4.79 0 8.05 2.77 8.05 7.04v10.53c0 4.23-3.26 7.04-8.05 7.04zm1.83-17.57c0-.9-.75-1.57-1.84-1.57h-2.62c-1.09 0-1.98.79-1.98 1.57v10.53c0 .94.67 1.54 1.98 1.54h2.62c1.16 0 1.84-.64 1.84-1.54V68.34zM65.21 85.42h-4.68c-.19 0-.3-.15-.41-.34l-5.58-10.34c-.49-.86-.79-1.69-.79-1.69h-.15s.22 2.96.22 6.03v5.96c0 .3-.15.38-.37.38h-5.39c-.19 0-.34-.08-.34-.38V62.16c0-.3.15-.37.34-.37h4.76c.23 0 .38.11.49.34l5.54 10.56c.53.97.82 1.8.82 1.8h.11s-.19-2.92-.19-6.25v-6.07c0-.3.11-.37.34-.37h5.28c.15 0 .38.07.38.37v22.88c0 .3-.15.37-.38.37zM83.08 67.3h-4.19c-.38 0-.45.15-.45.41v17.34c0 .3-.19.38-.37.38h-5.51c-.19 0-.34-.08-.34-.38V67.71c0-.26-.07-.41-.49-.41h-4.16c-.19 0-.37-.08-.37-.34v-4.79c0-.3.19-.37.37-.37h15.5c.11 0 .34.07.34.37v4.79c.01.26-.14.34-.33.34zM104.28 85.42h-5.84c-.15 0-.26-.11-.34-.26l-3.45-8.69c-.08-.19-.19-.26-.34-.26h-2.58c-.34 0-.45.15-.45.41v8.43c0 .3-.19.38-.37.38h-5.54c-.19 0-.34-.08-.34-.38V62.16c0-.3.15-.37.34-.37h10.45c4.91 0 8.05 2.81 8.05 7.42v.34c0 2.32-1.09 4.12-2.73 5.17-.34.22-.3.49-.19.82l3.67 9.4c.11.26.03.48-.34.48zm-6.6-16.55c0-1.01-.64-1.57-1.87-1.57h-4.08c-.34 0-.45.15-.45.41v2.96c0 .26.11.41.45.41h4.08c1.16 0 1.87-.49 1.87-1.5v-.71zM126.45 85.42h-5.88c-.22 0-.26-.08-.34-.26l-.97-2.81c-.07-.19-.19-.26-.49-.26h-4.49c-.3 0-.38.07-.45.26l-1.01 2.81c-.08.19-.15.26-.34.26h-5.77c-.34 0-.49-.19-.37-.49l7.83-22.88c.07-.19.15-.26.37-.26h4.08c.15 0 .26.04.34.26l7.83 22.88c.11.3.07.49-.34.49zm-9.07-11.01c-.45-2.21-.71-4.61-.71-4.61h-.11s-.26 2.4-.79 4.61l-.67 2.92c-.04.19.07.34.38.34h2.17c.26 0 .38-.15.34-.34l-.61-2.92zM143.04 84.41c-1.35 1.05-2.96 1.5-5.05 1.5h-2.58c-5.06 0-8.13-2.81-8.13-7.04V68.34c0-4.23 3.07-7.04 8.13-7.04h2.58c2.43 0 4.19.6 5.65 1.98.79.79 1.5 1.76 2.17 3.03.11.23.22.56-.07.71l-4.64 2.13c-.3.15-.56-.04-.71-.3-.75-1.35-1.61-2.1-2.73-2.1h-2.25c-1.28 0-1.98.64-1.98 1.57v10.53c0 .94.71 1.57 1.98 1.57h2.25c1.12 0 1.98-.75 2.73-2.1.15-.26.41-.45.71-.3l4.64 2.13c.3.15.19.49.07.71-.82 1.6-1.72 2.76-2.77 3.55zM163.07 67.3h-4.2c-.37 0-.45.15-.45.41v17.34c0 .3-.19.38-.37.38h-5.51c-.19 0-.34-.08-.34-.38V67.71c0-.26-.07-.41-.49-.41h-4.15c-.19 0-.38-.08-.38-.34v-4.79c0-.3.19-.37.38-.37h15.5c.11 0 .34.07.34.37v4.79c.01.26-.14.34-.33.34zM175.21 85.91h-2.62c-4.87 0-8.13-2.81-8.13-7.04V68.34c0-4.23 3.33-7.04 8.13-7.04h2.62c4.79 0 8.05 2.77 8.05 7.04v10.53c0 4.23-3.26 7.04-8.05 7.04zm1.83-17.57c0-.9-.75-1.57-1.84-1.57h-2.62c-1.09 0-1.98.79-1.98 1.57v10.53c0 .94.67 1.54 1.98 1.54h2.62c1.16 0 1.84-.64 1.84-1.54V68.34zM205.24 85.42h-5.84c-.15 0-.26-.11-.34-.26l-3.45-8.69c-.08-.19-.19-.26-.34-.26h-2.58c-.34 0-.45.15-.45.41v8.43c0 .3-.19.38-.38.38h-5.54c-.19 0-.34-.08-.34-.38V62.16c0-.3.15-.37.34-.37h10.45c4.91 0 8.05 2.81 8.05 7.42v.34c0 2.32-1.09 4.12-2.73 5.17-.34.22-.3.49-.19.82l3.67 9.4c.12.26.05.48-.33.48zm-6.59-16.55c0-1.01-.64-1.57-1.88-1.57h-4.08c-.34 0-.45.15-.45.41v2.96c0 .26.11.41.45.41h4.08c1.16 0 1.88-.49 1.88-1.5v-.71zM214.98 85.91h-1.16c-2.58 0-4.68-.82-6.18-2.29-.6-.56-1.09-1.2-1.5-1.91-.15-.22-.3-.56.08-.79l3.89-2.59c.26-.19.6-.19.75.11.67 1.27 1.61 1.95 2.88 1.95h1.16c1.16 0 1.91-.64 1.91-1.72 0-1.69-1.87-1.91-4.38-2.77-4.01-1.38-6.25-3.03-6.25-7.19 0-4.64 3.11-7.41 8.24-7.41h.56c2.43 0 4.42.71 5.88 1.98.71.6 1.31 1.35 1.8 2.17.15.22.3.6-.08.82l-3.89 2.58c-.26.19-.6.19-.75-.11-.67-1.27-1.61-1.95-2.88-1.95h-.64c-1.12 0-1.87.53-1.87 1.72 0 1.46 2.29 1.98 4.16 2.58 4.38 1.39 6.48 3.22 6.48 7.42-.01 4.63-2.93 7.4-8.21 7.4z"/></g><g><linearGradient id="a" gradientUnits="userSpaceOnUse" x1="32.4" y1="12.027" x2="24.428" y2="16.772"><stop offset="0" stop-color="#00183A"/><stop offset=".036" stop-color="#002142"/><stop offset=".389" stop-color="#005C82"/><stop offset=".678" stop-color="#168BB5"/><stop offset=".889" stop-color="#3BACD6"/><stop offset="1" stop-color="#45BBE5"/></linearGradient><path fill="url(#a)" d="M27.25 3l-4.59 10.62 5.1 11.85s.34.92.23 1.27l4.85-11.29L27.25 3z"/><linearGradient id="b" gradientUnits="userSpaceOnUse" x1="28.182" y1="14.115" x2="50.121" y2="14.115"><stop offset="0" stop-color="#003963"/><stop offset=".404" stop-color="#003A64"/><stop offset=".564" stop-color="#003F69"/><stop offset=".68" stop-color="#004871"/><stop offset=".776" stop-color="#00547E"/><stop offset=".858" stop-color="#00668F"/><stop offset=".931" stop-color="#007CA6"/><stop offset=".997" stop-color="#009AC3"/><stop offset="1" stop-color="#009CC6"/></linearGradient><path fill="url(#b)" d="M38.62 25s.7 2.28 2.89 2.44h7.77s1.35.09.65-1.78L40.19 3.08s-.44-1.3-1.27-1.88c0 0-.51-.46-1.78-.41h-6.79s-1.3-.12-2.16 1L38.62 25z"/><linearGradient id="c" gradientUnits="userSpaceOnUse" x1="10.319" y1="11.914" x2="2.574" y2="16.524"><stop offset="0" stop-color="#00183A"/><stop offset=".036" stop-color="#002142"/><stop offset=".389" stop-color="#005C82"/><stop offset=".678" stop-color="#168BB5"/><stop offset=".889" stop-color="#3BACD6"/><stop offset="1" stop-color="#45BBE5"/></linearGradient><path fill="url(#c)" d="M6.12 26.36l4.64-10.84L5.23 3 .66 13.55l4.89 11.48"/><linearGradient id="d" gradientUnits="userSpaceOnUse" x1="77.861" y1="11.985" x2="69.93" y2="16.706"><stop offset="0" stop-color="#00183A"/><stop offset=".036" stop-color="#002142"/><stop offset=".389" stop-color="#005C82"/><stop offset=".678" stop-color="#168BB5"/><stop offset=".889" stop-color="#3BACD6"/><stop offset="1" stop-color="#45BBE5"/></linearGradient><path fill="url(#d)" d="M72.72 2.99l-4.58 10.6 5.2 12.14s.19.55.15.92l4.83-11.2-5.6-12.46z"/><linearGradient id="e" gradientUnits="userSpaceOnUse" x1="55.123" y1="10.825" x2="49.742" y2="14.028"><stop offset="0" stop-color="#00183A"/><stop offset=".036" stop-color="#002142"/><stop offset=".389" stop-color="#005C82"/><stop offset=".678" stop-color="#168BB5"/><stop offset=".889" stop-color="#3BACD6"/><stop offset="1" stop-color="#45BBE5"/></linearGradient><path fill="url(#e)" d="M53.18 22.49l3.03-7.03L50.61 3l-2.76 6.4 5.23 12.85"/><linearGradient id="f" gradientUnits="userSpaceOnUse" x1="51.537" y1="14.065" x2="73.497" y2="14.065"><stop offset="0" stop-color="#003963"/><stop offset=".404" stop-color="#003A64"/><stop offset=".564" stop-color="#003F69"/><stop offset=".68" stop-color="#004871"/><stop offset=".776" stop-color="#00547E"/><stop offset=".858" stop-color="#00668F"/><stop offset=".931" stop-color="#007CA6"/><stop offset=".997" stop-color="#009AC3"/><stop offset="1" stop-color="#009CC6"/></linearGradient><path fill="url(#f)" d="M62 24.94s.84 2.28 2.91 2.45h7.74s1.35.1.65-1.78L63.56 3.03s-.43-1.3-1.27-1.88c0 0-.51-.46-1.78-.41h-6.79s-1.3-.12-2.18 1L62 24.94z"/><linearGradient id="g" gradientUnits="userSpaceOnUse" x1="6.075" y1="14.055" x2="28.013" y2="14.055"><stop offset="0" stop-color="#003963"/><stop offset=".404" stop-color="#003A64"/><stop offset=".564" stop-color="#003F69"/><stop offset=".68" stop-color="#004871"/><stop offset=".776" stop-color="#00547E"/><stop offset=".858" stop-color="#00668F"/><stop offset=".931" stop-color="#007CA6"/><stop offset=".997" stop-color="#009AC3"/><stop offset="1" stop-color="#009CC6"/></linearGradient><path fill="url(#g)" d="M16.5 24.91s.8 2.3 2.99 2.47h7.67s1.34.09.65-1.78L18.08 3.02s-.44-1.3-1.27-1.88c0 0-.51-.46-1.78-.41h-6.8s-1.3-.12-2.16 1L16.5 24.91z"/><linearGradient id="h" gradientUnits="userSpaceOnUse" x1="73.66" y1="17.743" x2="98.941" y2="17.743"><stop offset="0" stop-color="#003963"/><stop offset=".404" stop-color="#003A64"/><stop offset=".564" stop-color="#003F69"/><stop offset=".68" stop-color="#004871"/><stop offset=".776" stop-color="#00547E"/><stop offset=".858" stop-color="#00668F"/><stop offset=".931" stop-color="#007CA6"/><stop offset=".997" stop-color="#009AC3"/><stop offset="1" stop-color="#009CC6"/></linearGradient><path fill="url(#h)" d="M87.45 32.31s.78 2.28 2.97 2.44h7.67s1.35.09.65-1.78L85.65 3.03s-.44-1.3-1.28-1.88c0 0-.51-.46-1.78-.41H75.8s-1.32-.07-2.15.99l13.8 30.58z"/></g></svg>