<?xml version="1.0" encoding="utf-8"?>
<!-- Generator: Adobe Illustrator 24.0.1, SVG Export Plug-In . SVG Version: 6.00 Build 0)  -->
<svg version="1.1" id="Layer_1" xmlns="http://www.w3.org/2000/svg" xmlns:xlink="http://www.w3.org/1999/xlink" x="0px" y="0px"
	 viewBox="0 0 1429.1 319" style="enable-background:new 0 0 1429.1 319;" xml:space="preserve">
<style type="text/css">
	.st0{fill:#000F19;}
	.st1{fill:url(#SVGID_1_);}
	.st2{fill:url(#SVGID_2_);}
	.st3{fill:#152431;}
	.st4{fill:#00FFFF;}
	.st5{fill:#82FF87;}
	.st6{fill:#FFFFFF;}
	.st7{fill:none;}
</style>
<g>
	<path class="st4" d="M314.5,200.3c22.8-85.3-27.9-173-113.2-195.8c-23-5.1-50.2-4.5-70.6,8.8c-32,21-18.1,60.9,8.2,79.1
		c12.6,8.7,27.1,14.3,40.9,20.9c27.1,12.8,53.3,30.4,67.9,56.5c3.9,7,6.8,14.5,8.8,22.2c2.5,10.1,3.3,20.4,2.4,30.5
		c-3.7,44.3-37.3,85.8-81.8,94.5c-5.6,1.1-11.2,1.7-16.7,1.9C230.9,318.8,295.4,271.7,314.5,200.3z"/>
	<path class="st5" d="M171.3,309.1c15.3-6.1,28.7-19.3,30.6-35.6c1.5-12.5-3.9-25-11.3-35.2c-11.8-16.2-28.6-28.1-45.6-38.7
		c-17-10.6-34.8-20.4-49.8-33.7C66,140,59,105.7,68.9,68.7c6.8-25.4,21.7-44.9,44.8-58.3c7.7-4.5,15.9-7.8,24.5-9.8
		C76.3,9.1,22.6,53.6,5.5,117.7c-22.8,85.3,27.9,173,113.2,195.8c0.1,0,0.3,0.1,0.4,0.1c-1.9-0.5-3.7-1.1-5.6-1.6
		C131.3,317.5,154.1,315.9,171.3,309.1z"/>
</g>
<g>
	<path class="st7" d="M1131,237.8c-12.6,0.6-22.7,5.5-22.7,18.1c0.2,12.1,12,18.1,23.9,15.9c12.9-2.3,21.9-15.3,21.6-34.8
		C1147,237.1,1138.6,237.2,1131,237.8z"/>
	<path class="st7" d="M591.6,219.7c-7.3,0-14.7,4.4-16.7,12h34.1C606.6,223.9,599.2,219.7,591.6,219.7z"/>
	<path class="st7" d="M737,220c-10.5-0.3-19.3,7.3-19.3,20.2c0,12,9,19.7,19.5,19.4c9.7-0.2,18.6-7.9,18.6-19.4
		C755.7,227.7,747.2,220.2,737,220z"/>
	<path class="st7" d="M937.1,138.4c7.2-1.8,11.4-8,11.4-15.6c-4.5-0.6-9.6-0.8-14.1-0.1c-6.2,0.6-11,3.5-10.7,9.2
		C924,138.4,931.3,139.9,937.1,138.4z"/>
	<path class="st7" d="M1147.7,97.1c-7.2,0-14.6,4.4-16.5,11.9h33.7C1162.6,101.3,1155.2,97.1,1147.7,97.1z"/>
	<path class="st7" d="M1381.7,208.4c-13.7,0-28,9.9-29.5,27.6l59.5-0.2C1409.5,217.8,1395.3,208.4,1381.7,208.4z"/>
	<path class="st7" d="M719.6,131.8c0.3,6.6,7.5,8.1,13.4,6.6c7.2-1.8,11.4-8,11.4-15.6c-4.5-0.6-9.6-0.8-14.1-0.1
		C724.1,123.2,719.3,126,719.6,131.8z"/>
	<path class="st7" d="M1023.8,136.6c10.7,0.3,19.2-7.7,19.2-19.2c0-12-8.1-20.3-19.1-20c-10.4,0.2-18.5,7.7-18.5,20
		C1005.4,128.8,1013.5,136.4,1023.8,136.6z"/>
	<path d="M993.5,203.7v74.8h9.7l0.3-75.1c-1.8,0.5-3.7,0.8-5.6,0.8C996.4,204.3,994.9,204.1,993.5,203.7z"/>
	<path d="M1054.2,200c-11.4,0-22.7,6.7-27.4,19.3v-17.8h-9.7v77h9.7v-37.8c0-18.7,9.1-32.2,25.5-32.2c17,0,26.2,11.5,26.2,29v41h9.7
		v-42.7C1088.3,213.4,1076,199.8,1054.2,200z"/>
	<path d="M1132.4,200c-15.5,0-30,8.4-32.1,25.7h9c1.8-12.3,13.1-17.8,23.3-17.8c14.8,0,20.7,9,21.1,22.8c-7.1,0-16.9,0.3-25.1,0.8
		c-18.2,1.2-30,8.8-29.7,25.5c0.3,15,13.5,25.2,30.4,22.9c14.1-2.1,21.1-12.8,24.5-22.5v21.1h9.6v-41.5
		C1163.4,214,1154.6,199.8,1132.4,200z M1132.2,271.8c-11.9,2.1-23.7-3.8-23.9-15.9c0-12.6,10-17.5,22.7-18.1
		c7.6-0.6,16-0.8,22.8-0.8C1154.1,256.5,1145.2,269.5,1132.2,271.8z"/>
	<path d="M1213.5,200c-11.4,0-22.7,6.7-27.4,19.3v-17.8h-9.7v77h9.7v-37.8c0-18.7,9.1-32.2,25.5-32.2c17,0,26.2,11.5,26.2,29v41h9.7
		v-42.7C1247.6,213.4,1235.2,199.8,1213.5,200z"/>
	<path d="M1296.8,208.5c14.1,0,24,6.7,28.3,18.4h9.1c-5.2-17.5-19-26.9-37.4-26.9c-21.3,0-39.1,14.9-39.1,40.4
		c0,22.9,17.9,39.6,39.1,39.6c18.4,0,33-10.8,37.4-27.6h-8.7c-4,11.8-15.1,19.1-28.9,19.1c-15.7-0.2-29.7-13.7-29.7-31.1
		C1267,220.7,1280.8,208.5,1296.8,208.5z"/>
	<path d="M1421,237.1c-1.7-22.9-19-37.1-39.4-37.1c-21.1,0-39.7,14.9-39.7,40.4c0,22.9,18.7,39.6,39.7,39.6c14.6,0,28-7.3,34.7-19.7
		l-7.6-4.4c-5.2,10.6-17,15.6-27.2,15.6c-15.2,0-28.9-12.1-30-29.3l69.5-0.2C1421.2,240.4,1421.2,238.6,1421,237.1z M1352.2,236
		c1.5-17.8,15.8-27.6,29.5-27.6s27.8,9.4,30,27.5L1352.2,236z"/>
	<circle cx="997.9" cy="185.1" r="7.1"/>
	<polygon points="982.5,178.5 920.9,178.5 920.9,278.5 930.6,278.5 930.6,232.3 977.3,232.3 977.3,224.3 930.6,224.3 930.6,187.3 
		982.5,187.3 	"/>
	<path d="M420.5,96c-12-1.8-17.6-5.6-17.4-11.7c0-6.3,6-10.4,13.8-10.4c8.7,0,16.5,3.2,17.6,13.8h22.3c-0.8-21-19.7-33.2-39.8-33.2
		c-19.2,0-36.1,10.7-36.2,29.1c0,19.5,15.5,27.9,37.3,30.3c10.8,1.4,18.5,4.5,18.3,12.6c-0.2,7.8-7.5,10.4-15.5,10.2
		c-7.7-0.1-16.4-3.8-17.6-14.4H381c1.2,21.2,19.2,33.8,39.2,34.2c19.2,0.5,37.6-8.3,38.2-27.9C459.1,107.9,445.3,99.3,420.5,96z"/>
	<path d="M525.3,114.2c0,13.5-5.7,22.4-17.3,22.4c-11.7,0.2-17.7-7.8-17.7-20.9V78.9h-23.3V120c0,25.2,14.4,37.2,35.2,36.6
		c8.7-0.2,18.8-4.1,23.2-12.9V155h23.3V78.9h-23.3V114.2z"/>
	<path d="M592.1,139.3c-6.6-0.1-11.7-4.2-12.3-11h-22.1c0.2,17.7,16.5,27.9,34.1,28.4c18.9,0.5,33.4-7.2,33.4-22.7
		c0.2-16.2-10.2-19.4-32-23.1c-8.4-1.5-11.7-3.9-11.9-8.3c0-4.8,4.1-7.7,9.5-7.5c6.9,0.2,11.6,4.5,11.9,10.8h22.1
		c-0.5-18.5-15.5-28.4-35-28.4c-18.6,0-32.2,9.5-31.9,24.2c0.3,16.1,13.7,20.3,33.4,22.5c7.5,1.1,11,3.9,10.8,8.1
		C601.7,136.7,598,139.3,592.1,139.3z"/>
	<path d="M643.2,125.1c0,28.4,27.7,37.1,49.2,28.5l-3.6-18.3c-11.7,4.7-22.3,0.1-22.3-11.1V97.7h20.3V77.8h-20.1l-0.2-22.6h-23.3
		v22.6H630v19.8h13.2V125.1z"/>
	<path d="M696.9,134.6c0.8,14.7,13.1,23.4,27.7,22.1c10.1-1.1,16.5-6.3,19.8-13.1v11.6h23.3v-39.6c0-24.3-12.9-38.3-35.5-38
		c-15.6,0.2-31.9,8.4-33.5,27.6h21.1c1.1-5.9,6.5-9.5,12.6-9.5c8.9,0,12,6.3,12.2,12.9c-6.2,0-15.3,0.1-21.7,0.8
		C706.2,111,696.1,119.3,696.9,134.6z M744.4,122.7c0,7.7-4.2,13.8-11.4,15.6c-5.9,1.5-13.1,0-13.4-6.6c-0.3-5.7,4.5-8.6,10.7-9.2
		C734.7,122,739.9,122.1,744.4,122.7z"/>
	<path d="M778.2,85.8v69.3h23.2l0.8-70c-3.6,2.4-7.9,3.8-12.5,3.8C785.5,89,781.5,87.9,778.2,85.8z"/>
	<path d="M858.3,77.4c-8.7,0.1-18,5-22.4,13.7V79h-23.3v76.1h23.3v-36.3c0-13.7,5.9-21.3,16.2-21.3c11.7-0.2,17.6,8,17.6,20.9v36.8
		H893V114C893,88.8,879.1,76.9,858.3,77.4z"/>
	<path d="M928.7,156.7c10.1-1.1,16.5-6.3,19.8-13.1v11.6h23.3v-39.6c0-24.3-12.9-38.3-35.5-38c-15.6,0.2-31.9,8.4-33.5,27.6h21.1
		c1.1-5.9,6.5-9.5,12.6-9.5c8.9,0,12,6.3,12.2,12.9c-6.2,0-15.3,0.1-21.7,0.8c-16.7,1.7-26.8,9.9-26,25.2
		C901.8,149.3,914.1,158,928.7,156.7z M923.7,131.8c-0.3-5.7,4.5-8.6,10.7-9.2c4.5-0.6,9.6-0.5,14.1,0.1c0,7.7-4.2,13.8-11.4,15.6
		C931.3,139.9,924,138.4,923.7,131.8z"/>
	<path d="M1004.2,143c5.7,9.6,15.6,13.8,25.1,14c21.5,0.3,36.8-17.6,36.8-39.5c0-25.4-15.6-39.8-35.5-39.9
		c-9.9-0.1-20.1,4.1-26.3,13.7v-36h-22.3v99.9h22.1V143z M1023.9,97.4c11-0.3,19.1,8,19.1,20c0,11.6-8.6,19.5-19.2,19.2
		c-10.2-0.1-18.3-7.8-18.3-19.2C1005.4,105,1013.5,97.5,1023.9,97.4z"/>
	<rect x="1074.9" y="55.2" width="23.3" height="99.9"/>
	<path d="M1147.7,156.7c15.2,0,28.1-7.4,35-18.9l-17.9-9.3c-3.2,5.7-9.9,8.6-17.1,8.6c-9-0.2-16.8-6-18.5-15h58.5
		c0.3-2.9,0.3-6.5,0-9.2c-2.4-21.8-18.8-35.3-40-35.3c-21.4,0-41.4,13.2-41.4,39.8C1106.4,141.8,1126.5,156.7,1147.7,156.7z
		 M1147.7,97.1c7.5,0,14.9,4.2,17.1,11.9h-33.7C1133.1,101.4,1140.5,97.1,1147.7,97.1z"/>
	<ellipse transform="matrix(0.7071 -0.7071 0.7071 0.7071 184.0618 577.9568)" cx="789.7" cy="66.8" rx="12.3" ry="12.3"/>
	<polygon points="380.1,278.5 450.9,278.5 450.9,257.2 403.7,257.2 403.7,237.9 444.9,237.9 444.9,219.1 403.7,219.1 403.7,199.6 
		451.1,199.6 451.1,178.5 380.1,178.5 	"/>
	<path d="M507,199.8c-8.8,0.2-18.2,5-22.7,13.8v-12.1h-23.6v77h23.6v-36.7c0-13.8,5.9-21.6,16.4-21.6c11.9-0.2,17.8,8,17.8,21.1
		v37.2h23.6v-41.6C542.1,211.3,528,199.4,507,199.8z"/>
	<path d="M591.6,200c-21.6,0-41.8,13.4-41.8,40.2c0,24.8,20.4,39.8,41.8,39.8c15.4,0,28.4-7.4,35.4-19.1l-18.1-9.4
		c-3.2,5.8-10,8.7-17.3,8.7c-9.1-0.2-17-6.1-18.7-15.2H632c0.3-2.9,0.3-6.5,0-9.3C629.6,213.6,613,200,591.6,200z M574.8,231.7
		c2-7.6,9.4-12,16.7-12c7.6,0,15.1,4.3,17.3,12H574.8z"/>
	<path d="M663.7,211.3v-9.9H640v77h23.7l-0.2-40.4c0-15.6,14.4-17.9,25.4-14.4l3.6-21.9C681.6,200.3,670.1,202.8,663.7,211.3z"/>
	<path d="M756.7,214.1c-5.9-9.4-15.2-14.3-26.6-14.1c-20.2,0.2-36,14.7-36,40.4c0,22.2,15.5,40.1,37.4,39.9
		c10.6-0.2,19.8-4.7,25.2-14.6v11.2c0,14.1-8.2,21.4-18.6,21.7c-8.4,0.2-17.5-4.6-19.8-14.9l-22,3.3c3.2,18.7,19.9,31.4,41.7,31.4
		c21.1,0,41.1-12.9,41.1-41v-76.1h-22.5L756.7,214.1z M737.1,259.6c-10.5,0.3-19.5-7.4-19.5-19.4c0-12.9,8.8-20.5,19.3-20.2
		c10.2,0.2,18.7,7.7,18.7,20.2C755.7,251.7,746.9,259.5,737.1,259.6z"/>
	<path d="M827,247.9l-17.8-46.5h-24.6l30,70.9l-2.6,5.3c-3,6.5-6.2,7.4-16,4.6l-6.8,17.8c20.8,6.8,34.2,3,40.3-9.7l42.3-88.8h-24.6
		L827,247.9z"/>
</g>
</svg>
